<?xml version="1.0" encoding="UTF-8" standalone="no"?>
<!DOCTYPE svg PUBLIC "-//W3C//DTD SVG 1.1//EN" "http://www.w3.org/Graphics/SVG/1.1/DTD/svg11.dtd">
<svg width="100%" height="100%" viewBox="0 0 55 55" version="1.1" xmlns="http://www.w3.org/2000/svg" xmlns:xlink="http://www.w3.org/1999/xlink" xml:space="preserve" xmlns:serif="http://www.serif.com/" style="fill-rule:evenodd;clip-rule:evenodd;stroke-linejoin:round;stroke-miterlimit:2;">
    <g transform="matrix(1,0,0,1,-149.878,-986.007)">
        <g transform="matrix(0.993766,0,0,1,6.02956,-0.277341)">
            <g transform="matrix(1.07991,0,0,1.07318,-53.9524,-73.8852)">
                <path d="M209.211,1006.7C209.398,1006.89 209.702,1006.89 209.889,1006.7C212.351,1004.24 227.394,989.199 227.394,989.199C229.156,987.436 232.014,987.436 233.777,989.199C233.777,989.199 233.778,989.199 233.778,989.2C235.541,990.962 235.541,993.821 233.778,995.583C233.778,995.583 218.735,1010.63 216.273,1013.09C216.086,1013.27 216.086,1013.58 216.273,1013.77C218.735,1016.23 233.778,1031.27 233.778,1031.27C235.541,1033.03 235.541,1035.89 233.778,1037.65C233.778,1037.65 233.777,1037.65 233.777,1037.65C232.014,1039.42 229.156,1039.42 227.394,1037.65C227.394,1037.65 212.351,1022.61 209.889,1020.15C209.702,1019.96 209.398,1019.96 209.211,1020.15C206.749,1022.61 191.706,1037.65 191.706,1037.65C189.943,1039.42 187.085,1039.42 185.322,1037.65C185.322,1037.65 185.322,1037.65 185.322,1037.65C183.559,1035.89 183.559,1033.03 185.322,1031.27C185.322,1031.27 200.364,1016.23 202.827,1013.77C203.014,1013.58 203.014,1013.27 202.827,1013.09C200.364,1010.63 185.322,995.583 185.322,995.583C183.559,993.821 183.559,990.962 185.322,989.2C185.322,989.199 185.322,989.199 185.322,989.199C187.085,987.436 189.943,987.436 191.706,989.199C191.706,989.199 206.749,1004.24 209.211,1006.7Z" style="fill:white;"/>
            </g>
        </g>
    </g>
</svg>
