<?xml version="1.0" encoding="UTF-8" standalone="no"?>
<!DOCTYPE svg PUBLIC "-//W3C//DTD SVG 1.1//EN" "http://www.w3.org/Graphics/SVG/1.1/DTD/svg11.dtd">
<svg width="100%" height="100%" viewBox="0 0 91 55" version="1.1" xmlns="http://www.w3.org/2000/svg" xmlns:xlink="http://www.w3.org/1999/xlink" xml:space="preserve" xmlns:serif="http://www.serif.com/" style="fill-rule:evenodd;clip-rule:evenodd;stroke-linejoin:round;stroke-miterlimit:2;">
    <g transform="matrix(1,0,0,1,-39.0614,-986.007)">
        <g transform="matrix(0.993766,0,0,1,6.02956,-0.277341)">
            <g transform="matrix(0.787727,0,0,1,2.88856,-4.04681)">
                <path d="M153.702,1038.19C153.702,1036.34 152.966,1034.56 151.657,1033.25C150.347,1031.94 148.571,1031.2 146.72,1031.2C126.17,1031.2 66.06,1031.2 45.511,1031.2C43.659,1031.2 41.884,1031.94 40.574,1033.25C39.265,1034.56 38.529,1036.34 38.529,1038.19C38.529,1038.19 38.529,1038.19 38.529,1038.19C38.529,1040.04 39.265,1041.82 40.574,1043.13C41.884,1044.44 43.659,1045.17 45.511,1045.17C66.06,1045.17 126.17,1045.17 146.72,1045.17C148.571,1045.17 150.347,1044.44 151.657,1043.13C152.966,1041.82 153.702,1040.04 153.702,1038.19C153.702,1038.19 153.702,1038.19 153.702,1038.19ZM153.702,1017.75C153.702,1015.9 152.966,1014.12 151.657,1012.81C150.347,1011.5 148.571,1010.77 146.72,1010.77C126.17,1010.77 66.06,1010.77 45.511,1010.77C43.659,1010.77 41.884,1011.5 40.574,1012.81C39.265,1014.12 38.529,1015.9 38.529,1017.75C38.529,1017.75 38.529,1017.75 38.529,1017.75C38.529,1019.6 39.265,1021.38 40.574,1022.69C41.884,1024 43.659,1024.73 45.511,1024.73C66.06,1024.73 126.17,1024.73 146.72,1024.73C148.571,1024.73 150.347,1024 151.657,1022.69C152.966,1021.38 153.702,1019.6 153.702,1017.75C153.702,1017.75 153.702,1017.75 153.702,1017.75ZM153.702,997.313C153.702,995.462 152.966,993.686 151.657,992.376C150.347,991.067 148.571,990.331 146.72,990.331C126.17,990.331 66.06,990.331 45.511,990.331C43.659,990.331 41.884,991.067 40.574,992.376C39.265,993.686 38.529,995.462 38.529,997.313C38.529,997.314 38.529,997.315 38.529,997.316C38.529,999.168 39.265,1000.94 40.574,1002.25C41.884,1003.56 43.659,1004.3 45.511,1004.3C66.06,1004.3 126.17,1004.3 146.72,1004.3C148.571,1004.3 150.347,1003.56 151.657,1002.25C152.966,1000.94 153.702,999.168 153.702,997.316C153.702,997.315 153.702,997.314 153.702,997.313Z" style="fill:white;"/>
            </g>
        </g>
    </g>
</svg>
