<?xml version="1.0" encoding="UTF-8" standalone="no"?>
<!DOCTYPE svg PUBLIC "-//W3C//DTD SVG 1.1//EN" "http://www.w3.org/Graphics/SVG/1.1/DTD/svg11.dtd">
<svg width="100%" height="100%" viewBox="0 0 150 104" version="1.1" xmlns="http://www.w3.org/2000/svg" xmlns:xlink="http://www.w3.org/1999/xlink" xml:space="preserve" xmlns:serif="http://www.serif.com/" style="fill-rule:evenodd;clip-rule:evenodd;stroke-linejoin:round;stroke-miterlimit:2;">
    <g transform="matrix(1,0,0,1,-1249.94,-43.4629)">
        <g transform="matrix(0.992604,0,0,1,18.6925,0)">
            <g transform="matrix(1.45664,0,0,1.44587,770.469,-398.369)">
                <g transform="matrix(1,0,-0.28881,0.965107,0.509339,13.1548)">
                    <rect x="431" y="303" width="18" height="74" style="fill:url(#_Linear1);"/>
                </g>
                <g transform="matrix(1,0,-0.28881,0.965107,43.5093,13.1548)">
                    <rect x="431" y="303" width="18" height="74" style="fill:url(#_Linear2);"/>
                </g>
                <g transform="matrix(-1,0,0.28881,0.965107,705.491,13.1548)">
                    <rect x="431" y="303" width="18" height="74" style="fill:url(#_Linear3);"/>
                </g>
                <g transform="matrix(-1,0,0.28881,0.965107,748.491,13.1548)">
                    <rect x="431" y="303" width="18" height="74" style="fill:url(#_Linear4);"/>
                </g>
            </g>
        </g>
    </g>
    <defs>
        <linearGradient id="_Linear1" x1="0" y1="0" x2="1" y2="0" gradientUnits="userSpaceOnUse" gradientTransform="matrix(-0.23754,-74,77.7424,21.8985,440.296,377)"><stop offset="0" style="stop-color:rgb(40,255,211);stop-opacity:1"/><stop offset="1" style="stop-color:black;stop-opacity:1"/></linearGradient>
        <linearGradient id="_Linear2" x1="0" y1="0" x2="1" y2="0" gradientUnits="userSpaceOnUse" gradientTransform="matrix(0.698101,-74,78.0224,22.868,439.872,377)"><stop offset="0" style="stop-color:rgb(40,255,211);stop-opacity:1"/><stop offset="1" style="stop-color:black;stop-opacity:1"/></linearGradient>
        <linearGradient id="_Linear3" x1="0" y1="0" x2="1" y2="0" gradientUnits="userSpaceOnUse" gradientTransform="matrix(-0.0700183,74,77.8344,22.2172,439.942,303)"><stop offset="0" style="stop-color:rgb(40,255,211);stop-opacity:1"/><stop offset="1" style="stop-color:black;stop-opacity:1"/></linearGradient>
        <linearGradient id="_Linear4" x1="0" y1="0" x2="1" y2="0" gradientUnits="userSpaceOnUse" gradientTransform="matrix(0.23754,74,77.7424,21.8985,439.43,303)"><stop offset="0" style="stop-color:rgb(40,255,211);stop-opacity:1"/><stop offset="1" style="stop-color:black;stop-opacity:1"/></linearGradient>
    </defs>
</svg>
